# xmcd
#
# Track frame offsets:
#	150
#	1189
#	15543
#	29714
#	44393
#	57954
#	73021
#	85900
#	98406
#	115516
#	130556
#
# Disc length: 1902 seconds
#
# Revision: 0
# Processed by: cddbd v1.5.2PL0 Copyright (c) Steve Scherf et al.
# Submitted via: dBpowerAMP V4.0
#
DISCID=7d076c0b
DTITLE=Red Jenkins - The Bartender - It`s All On The Jukebox
DYEAR=2006
DGENRE=Country
TTITLE0=Intro
TTITLE1=The Bartender (It`s All On The Jukebox) with Ed Bruce
TTITLE2=Jones On The Jukebox with Becky Hobbs
TTITLE3=Easier Said Than Done with Billy Yates
TTITLE4=Whiskey Flavored Kisses with Joe Diamond
TTITLE5=You Make Me Feel More Like A Man with John Riggs
TTITLE6=Rebel On The Rocks with Joe Sun
TTITLE7=This Time Around with Melba Montgomery
TTITLE8=She Took His Breath Away with Billy Yates
TTITLE9=As Long As Honky Tonks Have Doors with Joe Diamond
TTITLE10=Ship My Body Back To Texas with Ed Bruce
EXTD=
EXTT0=
EXTT1=
EXTT2=
EXTT3=
EXTT4=
EXTT5=
EXTT6=
EXTT7=
EXTT8=
EXTT9=
EXTT10=
PLAYORDER=
